<svg width="512" height="512" version="1.1" viewBox="0 0 384 384" xmlns="http://www.w3.org/2000/svg" xmlns:xlink="http://www.w3.org/1999/xlink"><defs><linearGradient id="a" x1="46.752" x2="76.655" y1="238" y2="238" gradientTransform="translate(2,-22)" gradientUnits="userSpaceOnUse"><stop stop-color="#b3b3b3" offset="0"/><stop stop-color="#e6e6e6" offset=".16809"/><stop stop-color="#cccccc" offset=".26651"/><stop stop-color="#cccccc" offset=".74269"/><stop stop-color="#e6e6e6" offset=".86174"/><stop stop-color="#b3b3b3" offset="1"/></linearGradient></defs><path d="m33.295 117.51c-0.60742 0-1.2077 0.0313-1.7988 0.0908-8.572 0.86361-15.284 7.8369-15.722 16.515-0.0152 0.29897-0.022 0.59961-0.022 0.90235v193.24c0 0.30213 7e-3 0.60251 0.022 0.90088 5e-5 9.7e-4 -5e-5 2e-3 0 3e-3 0.43792 8.6776 7.1501 15.651 15.722 16.515 2e-3 1.5e-4 3e-3 -1.5e-4 4e-3 0 0.29417 0.0296 0.59079 0.0524 0.88916 0.0674 0.29994 0.0152 0.60155 0.022 0.90528 0.022h317.41c9.6875 0 17.543-7.8398 17.543-17.508v-193.24c0-2.8024-0.663-5.4477-1.8354-7.7959l0.0132-0.0161c-1.8605-3.7337-5.021-6.6947-8.8931-8.3203-0.4739-0.19896-0.95733-0.37706-1.4517-0.53466-0.0623-0.02-0.12344-0.0422-0.18603-0.0615-0.18825-0.0577-0.3789-0.10962-0.56983-0.16113-0.16744-0.0455-0.33598-0.0883-0.50537-0.12891-0.17039-0.0405-0.34038-0.0816-0.5127-0.11718-0.31773-0.0662-0.63714-0.12554-0.96093-0.17432-0.11448-0.0171-0.23049-0.0291-0.34571-0.0439-0.26852-0.035-0.53932-0.0636-0.81152-0.0864-0.11359-9e-3 -0.2271-0.0192-0.34131-0.0264-0.37823-0.0243-0.7582-0.041-1.1426-0.041z" fill="#ffffff" opacity=".2" stroke="#000000" stroke-width="7.5"/><path d="m176.08 34.576-122.19 0.19141c-10.027-1.3906-18.23 9.4219-18.23 21.121v59.879c0.61719-0.0664 1.2383-0.10937 1.8711-0.10937h137.36l33.129-39.477z" fill="#d41919"/><path d="m206.63 76.201-33.43 39.457h173.22c1.543 0 3.0391 0.19922 4.4844 0.55859l0.0273-20.918c0.0117-8.4297-4.2656-15.711-10.465-19.098z" fill="#951212" fill-rule="evenodd"/><path d="m350.91 94.691-9e-3 6.5244c-1.4453-0.35937-2.9424-0.5581-4.4854-0.5581h-308.89c-0.63281 0-1.2534 0.0435-1.8706 0.10986v15c0.61718-0.0664 1.2378-0.10986 1.8706-0.10986h308.89c1.543 0 3.04 0.19873 4.4854 0.5581l0.0263-20.918c2.9e-4 -0.20404-0.0129-0.4038-0.0175-0.60645z" opacity=".296" stroke-width=".99998"/><path d="m33.295 113.77h317.41c9.6875 0 17.543 7.8359 17.543 17.508v200.72c0 9.668-7.8555 17.508-17.543 17.508h-317.41c-9.6875 0-17.543-7.8398-17.543-17.508v-200.72c0-9.6719 7.8555-17.508 17.543-17.508z" fill="#ffffff"/><path d="m15.699 324.64v7.5c0 9.6682 7.8555 17.508 17.543 17.508h317.42c9.6878 0 17.543-7.8398 17.543-17.508v-7.5c0 9.6682-7.8555 17.508-17.543 17.508h-317.42c-9.6878 0-17.543-7.8398-17.543-17.508z" fill="#b3b3b3" stroke-width=".99997"/><path d="m176.08 34.351-122.19 0.1919c-10.027-1.3906-18.23 9.4222-18.23 21.122v7.5c0-11.699 8.2028-22.512 18.23-21.122l122.19-0.1919 31.94 41.606-0.0161 0.01905h132.46c6.1265 3.3472 10.368 10.501 10.456 18.804l9e-3 -7.2055c0.0117-8.43-4.2655-15.712-10.465-19.099h-132.46l0.0161-0.01905-31.94-41.606z" fill="#ffffff" opacity=".1" stroke-width=".99998"/><g transform="matrix(6.0339 0 0 6.0339 -194.17 -1020.8)"><path d="m55 197.24h18c1.662 0 3 1 3 3v3.0112h-3.2005l-0.03125-3.2542h-17.537l0.03125 3.2542h-3.2629v-3.0112c0-1.662 1.338-3 3-3z" fill="url(#a)" style="paint-order:normal"/><rect x="52" y="201.01" width="24" height="4" ry="1.5" opacity=".1"/><path d="m55 200c-1.662 0-3 0.59221-3 2.2542v1h3.2317v-1.2542h17.537v1.2542h3.2317v-1c0-1.662-1.338-2.2542-3-2.2542z" fill="#b3b3b3"/><rect x="55.265" y="201.25" width="17.535" height="2" opacity=".1"/></g><path d="m33.295 113.77c-9.6878 0-17.543 7.836-17.543 17.508v7.5c0-9.672 7.8555-17.508 17.543-17.508h317.41c9.6878 0 17.543 7.836 17.543 17.508v-7.5c0-9.672-7.8555-17.508-17.543-17.508z" fill="#e6e6e6" stroke-width=".99998"/><path d="m353.9 114.09c0.25955 0.0474 0.51371 0.10842 0.76904 0.16699-0.25617-0.0593-0.5087-0.11906-0.76904-0.16699zm3.3501 0.9668c0.12635 0.0506 0.25892 0.0887 0.38379 0.14209-0.12525-0.0538-0.25706-0.0911-0.38379-0.14209zm3.1816 1.6567c0.0852 0.0567 0.16343 0.12209 0.24756 0.18018-0.0844-0.0584-0.16212-0.12323-0.24756-0.18018zm2.4829 2.0215c0.10189 0.0988 0.20669 0.19468 0.30615 0.2959-0.0999-0.10172-0.20377-0.19663-0.30615-0.2959zm3.4526 4.8032-175.11 218.61h159.4c9.6875 0 17.543-7.8396 17.543-17.508v7.5c0 2.3534-0.48017 4.5915-1.3242 6.6416 0.87975-2.0865 1.3667-4.3783 1.3667-6.7837v-200.72c0-2.7932-0.71567-5.3964-1.8809-7.7388zm0.22705 215.84c-0.29617 0.64719-0.64518 1.2627-1.0151 1.8647 0.37472-0.59874 0.71381-1.2204 1.0151-1.8647zm-2.0669 3.3691c-0.19376 0.25165-0.39955 0.49184-0.60644 0.73242 0.20873-0.23895 0.41076-0.48232 0.60644-0.73242z" opacity=".05"/></svg>
